<svg width="156" height="190" viewBox="0 0 156 190" fill="none" xmlns="http://www.w3.org/2000/svg">
<g filter="url(#filter0_d)">
<rect x="30" y="26" width="96" height="130" rx="8" fill="white"/>
</g>
<mask id="mask0" mask-type="alpha" maskUnits="userSpaceOnUse" x="30" y="26" width="96" height="130">
<rect x="30.5" y="26.5" width="95" height="129" rx="7.5" fill="#F5F8FF" stroke="#D5DDE0"/>
</mask>
<g mask="url(#mask0)">
<path d="M138.991 107.169C139.003 105.044 139.003 105.044 138.993 100.055C138.98 93.1587 128.345 100.731 122.249 100.634C116.577 100.542 112.737 100.221 105.637 96.9019C97.0627 92.8944 86.8349 84.277 76.6986 83.4945C68.899 82.893 58.1391 87.8037 48.0221 89.9883C34.2705 92.9579 28.5154 79.7797 17.634 83.7538L17 203L138.456 202.212L138.991 107.169Z" fill="#418DE8"/>
<path d="M120.269 170C119.862 170 119.627 169.986 119.627 169.986L96.409 169.987C96.407 169.988 96.1777 170 95.7946 170C89.528 170 82.8315 167.506 82.8315 160.51V109.35C82.8315 100.786 89.6888 95.6366 102.673 94.4425V82.6121H113.386V94.4425C126.37 95.6366 133.23 100.786 133.23 109.35V160.51C133.23 164.267 131.305 167.075 127.666 168.629C124.769 169.866 121.528 170 120.269 170Z" fill="#D6FEFD"/>
<path d="M82.8315 113.363V160.51C82.8315 164.35 84.8536 166.826 87.7075 168.285H128.355C131.536 166.679 133.23 164.014 133.23 160.51V113.363H82.8315Z" fill="#87E3FF"/>
<path d="M112.724 96.672C114.349 96.664 115.976 96.7971 117.589 97.0422C119.202 97.2815 120.797 97.6765 122.346 98.2265C123.886 98.7953 125.386 99.5328 126.687 100.559C127.336 101.072 127.934 101.65 128.459 102.284C128.965 102.935 129.403 103.636 129.712 104.388C128.831 103.021 127.682 101.885 126.368 100.997C125.048 100.116 123.606 99.4266 122.106 98.8895C120.609 98.3376 119.054 97.9346 117.487 97.5733C115.917 97.2219 114.326 96.9539 112.724 96.672Z" fill="white"/>
<path d="M115.105 82.7103C115.105 83.2305 114.661 83.6583 114.122 83.6583H101.94C101.399 83.6583 100.958 83.2305 100.958 82.7103V81.951C100.958 81.4269 101.399 81 101.94 81H114.122C114.661 81 115.105 81.4269 115.105 81.951V82.7103Z" fill="#55AAD0"/>
<path d="M134.063 140.591C134.063 141.571 133.217 142.373 132.183 142.373H83.8811C82.8457 142.373 82 141.571 82 140.591V136.196C82 135.217 82.8457 134.414 83.8811 134.414H132.183C133.217 134.414 134.063 135.217 134.063 136.196V140.591Z" fill="#55AAD0"/>
<path d="M134.063 113.363C134.063 114.343 133.217 115.144 132.183 115.144H83.8811C82.8457 115.144 82 114.343 82 113.363V108.971C82 107.992 82.8457 107.19 83.8811 107.19H132.183C133.217 107.19 134.063 107.992 134.063 108.971V113.363Z" fill="#55AAD0"/>
<path d="M113.418 86.5241H102.644C102.032 86.5241 101.551 87.1624 101.551 87.9764V89.2946C101.551 90.1116 102.032 90.7498 102.644 90.7498H113.418C114.031 90.7498 114.509 90.1116 114.509 89.2946V87.9764C114.509 87.1624 114.031 86.5241 113.418 86.5241Z" fill="#BBFBFA"/>
</g>
<defs>
<filter id="filter0_d" x="0" y="0" width="156" height="190" filterUnits="userSpaceOnUse" color-interpolation-filters="sRGB">
<feFlood flood-opacity="0" result="BackgroundImageFix"/>
<feColorMatrix in="SourceAlpha" type="matrix" values="0 0 0 0 0 0 0 0 0 0 0 0 0 0 0 0 0 0 127 0"/>
<feOffset dy="4"/>
<feGaussianBlur stdDeviation="15"/>
<feColorMatrix type="matrix" values="0 0 0 0 0 0 0 0 0 0 0 0 0 0 0 0 0 0 0.05 0"/>
<feBlend mode="normal" in2="BackgroundImageFix" result="effect1_dropShadow"/>
<feBlend mode="normal" in="SourceGraphic" in2="effect1_dropShadow" result="shape"/>
</filter>
</defs>
</svg>
